HIERARCHY
ROOT Hips
{
	OFFSET 0.000000 0.000000 0.000000 
	CHANNELS 6 Xposition Yposition Zposition Zrotation Yrotation Xrotation
	JOINT LeftUpLeg
	{
		OFFSET 1.363060 -1.794630 0.839290 
		CHANNELS 3 Zrotation Yrotation Xrotation
		JOINT LeftLeg
		{
			OFFSET 2.448110 -6.726130 0.000000 
			CHANNELS 3 Zrotation Yrotation Xrotation
			JOINT LeftFoot
			{
				OFFSET 2.562200 -7.039590 0.000000 
				CHANNELS 3 Zrotation Yrotation Xrotation
				JOINT LeftToeBase
				{
					OFFSET 0.157640 -0.433110 2.322550 
					CHANNELS 3 Zrotation Yrotation Xrotation
					End Site
					{
						OFFSET 0.000000 0.000000 0.000000 
					}
				}
			}
		}
	}
	JOINT RightUpLeg
	{
		OFFSET -1.305520 -1.794630 0.839290 
		CHANNELS 3 Zrotation Yrotation Xrotation
		JOINT RightLeg
		{
			OFFSET -2.542530 -6.985550 0.000000 
			CHANNELS 3 Zrotation Yrotation Xrotation
			JOINT RightFoot
			{
				OFFSET -2.568260 -7.056230 0.000000 
				CHANNELS 3 Zrotation Yrotation Xrotation
				JOINT RightToeBase
				{
					OFFSET -0.164730 -0.452590 2.363150 
					CHANNELS 3 Zrotation Yrotation Xrotation
					End Site
					{
						OFFSET 0.000000 0.000000 0.000000 
					}
				}
			}
		}
	}
	JOINT Spine
	{
		OFFSET 0.028270 2.035590 -0.193380 
		CHANNELS 3 Zrotation Yrotation Xrotation
		JOINT Spine1
		{
			OFFSET 0.056720 2.048850 -0.042750 
			CHANNELS 3 Zrotation Yrotation Xrotation
			JOINT Neck1
			{
				OFFSET -0.054170 1.746240 0.172020 
				CHANNELS 3 Zrotation Yrotation Xrotation
				JOINT Head
				{
					OFFSET 0.104070 1.761360 -0.123970 
					CHANNELS 3 Zrotation Yrotation Xrotation
					End Site
					{
						OFFSET 0.000000 0.000000 0.000000 
					}
				}
			}
			JOINT LeftArm
			{
				OFFSET 3.362410 1.200890 -0.311210 
				CHANNELS 3 Zrotation Yrotation Xrotation
				JOINT LeftForeArm
				{
					OFFSET 4.983000 -0.000000 -0.000000 
					CHANNELS 3 Zrotation Yrotation Xrotation
					JOINT LeftHand
					{
						OFFSET 3.483560 -0.000000 -0.000000 
						CHANNELS 3 Zrotation Yrotation Xrotation
						JOINT LeftHandIndex1
						{
							OFFSET 0.715260 -0.000000 -0.000000 
							CHANNELS 3 Zrotation Yrotation Xrotation
							End Site
							{
								OFFSET 0.000000 0.000000 0.000000 
							}
						}
					}
				}
			}
			JOINT RightArm
			{
				OFFSET -3.136600 1.374050 -0.404650 
				CHANNELS 3 Zrotation Yrotation Xrotation
				JOINT RightForeArm
				{
					OFFSET -5.241900 -0.000000 -0.000000 
					CHANNELS 3 Zrotation Yrotation Xrotation
					JOINT RightHand
					{
						OFFSET -3.444170 -0.000000 -0.000000 
						CHANNELS 3 Zrotation Yrotation Xrotation
						JOINT RightHandIndex1
						{
							OFFSET -0.622530 -0.000000 -0.000000 
							CHANNELS 3 Zrotation Yrotation Xrotation
							End Site
							{
								OFFSET 0.000000 0.000000 0.000000 
							}
						}
					}
				}
			}
		}
	}
}
MOTION
Frames: 15
Frame Time: 0.041667
-11.665378 29.849099 -9.684437 -97.741684 84.435975 -68.071047 -18.613104 -5.644237 -23.308056 4.347292 11.579892 35.414541 2.987439 -12.673935 -35.378361 0.026400 1.048000 2.881000 28.251267 8.222454 -20.898167 -4.031870 -11.034700 33.209978 -3.713020 2.388453 -37.086067 -0.039300 -1.280000 3.519700 2.584884 -1.405695 12.131001 2.489128 -0.353893 -3.064200 28.373877 -21.579137 -34.329229 11.425300 -13.187700 -5.829300 -79.319806 -12.160592 41.192793 36.840158 -46.263955 -15.411722 0.019032 -0.303464 36.608746 -7.125000 0.000000 0.000000 79.998483 18.404413 51.736453 -35.646553 45.635831 -14.784110 -0.219331 0.145082 28.546158 7.125000 0.000000 0.000000 
-11.664590 29.847423 -9.696072 -96.273573 84.422870 -66.604250 -18.682040 -5.579249 -23.172114 4.348389 11.556190 35.280805 3.145428 -10.610028 -35.608075 0.031100 -1.138600 -3.130300 28.161447 8.236434 -20.885926 -4.031810 -11.033002 33.206424 -3.688133 2.386504 -36.961021 -0.025500 -1.030300 2.832200 2.389635 -1.698417 12.069683 2.407638 -0.505482 -3.114259 27.557025 -20.650011 -34.431718 11.263200 -12.655400 -6.227800 -79.249623 -12.034045 40.355342 36.682566 -46.156044 -15.293780 0.018564 -0.304295 36.760386 -7.125000 0.000000 0.000000 80.596469 18.767427 52.486887 -35.095437 45.247273 -14.405621 -0.218306 0.150220 28.823743 7.125000 0.000000 0.000000 
-11.654828 29.849001 -9.674281 -100.340309 84.125573 -70.858888 -17.960964 -6.122779 -22.723912 4.311874 11.524039 35.215575 2.874663 -12.666592 -34.850495 0.014100 0.767400 2.109100 28.682615 8.290211 -20.554843 -4.034101 -11.047977 33.257451 -3.749587 2.781918 -37.274198 -0.087600 -1.909100 5.254400 2.660444 -1.822644 11.929520 2.569068 -0.563529 -3.222423 27.227190 -19.904622 -34.715686 11.395700 -12.261700 -6.607900 -79.546241 -11.761211 39.958028 36.323813 -45.903348 -15.037002 0.016186 -0.307541 37.118561 -7.125000 0.000000 0.000000 80.796023 18.575298 52.434359 -34.741667 44.986651 -14.157806 -0.213546 0.153803 29.033053 7.125000 0.000000 0.000000 
-11.655420 29.849297 -9.688184 -99.051779 84.250595 -69.612372 -18.188740 -5.856222 -22.701987 4.285956 11.496183 35.136135 2.749113 -13.653808 -34.529814 0.081200 1.838000 5.058300 28.514261 8.115186 -20.565360 -4.031633 -11.049102 33.285230 -3.746181 3.713466 -37.295388 -0.172500 -2.675200 7.375800 2.666709 -1.542713 11.776251 2.372702 -0.426462 -3.357180 27.301036 -19.450845 -34.969514 11.643800 -12.015000 -6.784000 -79.825329 -11.874699 40.834989 36.068335 -45.725098 -14.864723 0.015732 -0.308537 36.985540 -7.125000 0.000000 0.000000 80.745317 18.249067 51.309867 -34.370349 44.707292 -13.894009 -0.208156 0.156700 29.622643 7.125000 0.000000 0.000000 
-11.653054 29.841507 -9.678817 -97.582249 84.249344 -68.193363 -18.603888 -4.483226 -23.140880 4.295126 11.496460 35.115767 3.011643 -12.313947 -35.405457 0.001600 0.256700 0.705300 28.510290 8.337476 -20.381968 -4.040032 -11.052681 33.277125 -3.763068 2.658293 -37.338033 -0.073500 -1.748800 4.812100 3.043470 -0.817325 11.696111 2.280252 -0.059782 -3.371608 28.024741 -19.296634 -35.137255 12.153200 -11.890900 -6.615800 -80.830171 -12.433217 42.398487 35.541604 -45.360695 -14.512186 0.012960 -0.312221 37.267978 -7.125000 0.000000 0.000000 79.929583 17.878421 49.524045 -34.232775 44.594982 -13.786908 -0.207487 0.155296 29.838444 7.125000 0.000000 0.000000 
-11.649603 29.833225 -9.670929 -97.093225 84.268709 -67.761800 -18.451873 -5.047176 -22.740586 4.297853 11.489451 35.070543 3.047586 -11.513583 -35.365437 0.011400 -0.690400 -1.897300 28.508251 8.516521 -20.244232 -4.059584 -11.074311 33.329142 -3.779427 1.495736 -37.409576 -0.011700 -0.697500 1.916900 2.691905 -1.262133 11.772515 2.342562 -0.290704 -3.276963 27.954852 -17.931500 -34.587415 12.086300 -11.213200 -6.722000 -82.412245 -13.529726 40.124343 33.629230 -43.964833 -13.186038 -0.003921 -0.331916 39.703606 -7.125000 0.000000 0.000000 80.581740 18.267363 50.981075 -34.230514 44.600616 -13.795528 -0.209888 0.157819 29.727423 7.125000 0.000000 0.000000 
-11.645264 29.829281 -9.669154 -96.985669 84.347073 -67.712542 -18.635768 -4.930265 -22.675237 4.309426 11.492403 35.057877 3.204514 -10.349424 -35.832995 0.061300 -1.597800 -4.395200 28.426634 8.593186 -20.138245 -4.056731 -11.072955 33.336341 -3.802212 2.013935 -37.523398 -0.033900 -1.189200 3.269600 2.855299 -0.965834 11.762933 2.257860 -0.140155 -3.224076 27.742356 -17.806466 -35.077107 12.189500 -11.101900 -6.950600 -80.718148 -12.475402 41.973503 35.478004 -45.314645 -14.463858 0.011388 -0.311535 37.377203 -7.125000 0.000000 0.000000 80.295350 17.921163 50.192272 -34.378789 44.703244 -13.890896 -0.211918 0.160669 30.025955 7.125000 0.000000 0.000000 
-11.642701 29.827112 -9.667380 -96.863791 84.519189 -67.647288 -18.890067 -5.239940 -22.455786 4.285716 11.472902 35.021255 3.123661 -11.757079 -35.775271 0.004500 0.431100 1.184600 28.241737 8.729364 -19.999984 -4.040693 -11.056222 33.302022 -3.807627 3.151692 -37.575418 -0.141100 -2.421000 6.670600 2.854352 -0.734931 11.738542 2.204596 -0.025900 -3.208490 27.082650 -17.650881 -35.704458 12.102900 -10.973800 -7.377400 -81.074789 -12.860542 42.402522 34.925830 -44.914750 -14.082221 0.005807 -0.321438 37.672537 -7.125000 0.000000 0.000000 80.332326 17.733138 49.396828 -34.291274 44.635556 -13.824822 -0.210037 0.163117 30.337527 7.125000 0.000000 0.000000 
-11.642996 29.825732 -9.668760 -95.484422 84.561579 -66.232194 -18.938800 -5.543604 -22.384403 4.292671 11.484230 35.054308 3.141277 -11.673686 -35.836057 0.011100 0.680900 1.871300 28.144253 8.967788 -19.950132 -4.021701 -11.036147 33.254644 -3.800358 4.237049 -37.593358 -0.324300 -3.660400 10.123100 2.634189 -0.398265 11.609770 1.881727 0.132737 -3.275587 26.999336 -17.186358 -35.837701 12.177400 -10.768100 -7.632500 -81.115409 -13.133812 42.709228 34.276554 -44.431002 -13.633334 0.000542 -0.332638 38.162222 -7.125000 0.000000 0.000000 80.692304 17.438171 48.434596 -34.170234 44.543002 -13.736216 -0.206125 0.166283 30.626428 7.125000 0.000000 0.000000 
-11.644081 29.830563 -9.682662 -98.539931 84.640617 -68.953059 -18.964924 -6.662491 -22.526046 4.336546 11.526308 35.150145 3.357068 -9.573374 -36.384229 0.013700 -0.756300 -2.078400 28.013617 9.017674 -20.313151 -3.991262 -10.995029 33.119875 -3.804139 4.885878 -37.661317 -0.496100 -4.515800 12.532400 2.504054 -0.977991 11.669129 1.874177 -0.160784 -3.038403 27.074668 -15.957913 -35.257931 12.143500 -10.109100 -7.557900 -80.342711 -12.764970 42.020318 34.933965 -44.914240 -14.080481 0.007993 -0.322289 37.580978 -7.125000 0.000000 0.000000 80.956607 18.008107 49.391477 -34.051671 44.459845 -13.662345 -0.203716 0.166756 30.629696 7.125000 0.000000 0.000000 
-11.655814 29.833521 -9.690747 -105.763664 84.657200 -75.961686 -18.862392 -7.958195 -22.482386 4.344643 11.540381 35.196730 3.363042 -9.610591 -36.417599 0.001600 -0.256800 -0.705500 28.076500 8.779312 -20.640430 -3.990401 -10.989950 33.066101 -3.852966 3.866397 -37.839866 -0.369900 -3.906300 10.813300 2.862706 -1.029575 11.315725 1.819740 -0.185207 -3.268933 26.868888 -15.629883 -35.884980 12.431700 -9.853900 -7.911900 -81.214415 -12.486353 42.505293 34.811550 -44.826321 -14.003296 0.006941 -0.321247 38.072263 -7.125000 0.000000 0.000000 80.152023 17.429155 49.006361 -34.460529 44.750810 -13.936920 -0.201569 0.162693 30.391923 7.125000 0.000000 0.000000 
-11.628108 29.814886 -9.694198 -95.660283 83.747668 -66.127520 -18.196520 -6.414148 -22.359132 4.339898 11.553475 35.280839 3.337206 -10.933118 -36.610626 0.009300 0.622600 1.710800 28.934299 8.916856 -19.996814 -3.978924 -10.959078 32.943143 -3.848075 2.482428 -37.747151 -0.113700 -2.173900 5.986500 3.088123 -0.290387 11.492136 1.556434 0.192678 -2.973916 26.841261 -15.241770 -35.999806 12.576100 -9.588600 -8.004500 -81.576506 -12.757130 42.901241 34.533794 -44.623914 -13.815636 0.006142 -0.323385 38.263323 -7.125000 0.000000 0.000000 79.820328 17.275893 48.632096 -34.657282 44.888456 -14.068070 -0.200851 0.160800 30.311673 7.125000 0.000000 0.000000 
-11.629883 29.803843 -9.646773 -95.287171 84.467482 -66.176831 -18.825585 -5.053009 -22.406784 4.326494 11.548867 35.311384 3.120946 -12.604622 -35.983517 0.011500 0.693200 1.905100 28.441635 8.964070 -19.462584 -3.992097 -10.958091 32.920070 -3.916716 0.939101 -38.093508 -0.044600 -1.362500 3.746800 3.054413 -0.445957 11.599237 2.375158 0.107252 -3.051391 27.307882 -14.266627 -35.259532 12.768000 -9.079300 -7.811200 -80.791547 -12.430082 43.134258 35.127181 -45.052025 -14.224679 0.012235 -0.313658 37.398784 -7.125000 0.000000 0.000000 79.906546 17.374284 48.998803 -34.543340 44.809801 -13.993107 -0.203136 0.159732 30.307538 7.125000 0.000000 0.000000 
-11.636390 29.799307 -9.657618 -94.650882 84.319599 -65.422135 -18.699970 -4.917790 -22.637593 4.333010 11.559481 35.345372 3.138890 -12.508953 -36.051169 0.005500 0.479900 1.318800 28.519783 9.149867 -19.580539 -3.999530 -10.970286 32.956032 -3.937331 0.752794 -38.202252 -0.026400 -1.049200 2.884100 3.124422 -0.484802 11.667007 2.372686 0.089800 -2.967070 27.513526 -13.475081 -34.647169 12.782400 -8.631400 -7.611300 -80.484028 -12.207446 42.884525 35.629279 -45.413959 -14.572319 0.014304 -0.308591 37.182547 -7.125000 0.000000 0.000000 79.844391 17.589002 49.110042 -34.606669 44.860185 -14.039284 -0.203340 0.158006 30.411562 7.125000 0.000000 0.000000 
-11.632052 29.794969 -9.646674 -97.715218 84.071119 -68.609967 -18.325647 -4.204657 -22.770006 4.318216 11.543602 35.312826 3.131724 -13.001808 -36.165413 -0.000000 0.036600 0.100400 28.946862 9.073670 -19.530164 -4.027062 -11.013521 33.086660 -3.958408 0.001395 -38.339289 -0.007200 -0.546900 1.502900 3.482443 -0.674964 11.802244 2.692813 0.005237 -2.836116 27.398991 -12.771987 -34.247924 12.738000 -8.193800 -7.546400 -80.594844 -12.179356 42.583675 35.873488 -45.589822 -14.742417 0.014026 -0.306857 37.080750 -7.125000 0.000000 0.000000 79.491096 17.600503 49.436419 -35.023862 45.164773 -14.329280 -0.202828 0.153051 30.409670 7.125000 0.000000 0.000000 
